<?xml version="1.0" encoding="UTF-8" standalone="no"?>
<svg width="512px" height="512px" viewBox="0 0 512 512" version="1.1" xmlns="http://www.w3.org/2000/svg" xmlns:xlink="http://www.w3.org/1999/xlink" class="social social-tg">
    <!-- Generator: Sketch 43.1 (39012) - http://www.bohemiancoding.com/sketch -->
    <title>Group 3</title>
    <desc>Created with Sketch.</desc>
    <defs></defs>
    <g id="Page-1" stroke="none" stroke-width="1" fill="none" fill-rule="evenodd">
        <g id="Group-3" fill-rule="nonzero">
            <circle id="Oval" fill="#7AA5DA" cx="256" cy="256" r="256"></circle>
            <g id="Group-2" transform="translate(88.000000, 134.000000)">
                <g id="telegram">
                    <path d="M274.717,1.52 C284.923,-2.462 295.473,6.468 293.232,17.19 L247.462,235.971 C245.324,246.228 233.274,250.848 224.827,244.642 L155.733,193.925 L120.514,229.886 C114.325,236.196 103.654,233.627 100.999,225.214 L75.589,144.552 L7.477,124.434 C-1.47,121.796 -1.987,109.35 6.684,105.954 L274.717,1.52 Z M241.118,50.065 C244.1,47.427 240.635,42.773 237.256,44.876 L90.241,136.053 C87.655,137.656 86.466,140.811 87.379,143.724 L107.428,231.764 C107.825,233.109 109.755,232.919 109.928,231.523 L114.41,164.429 C114.582,162.774 115.375,161.257 116.617,160.154 L241.118,50.065 Z" id="Shape" fill="#FFFFFF"></path>
                    <path d="M237.257,44.876 C240.636,42.773 244.101,47.427 241.119,50.065 L116.619,160.154 C115.378,161.257 114.585,162.774 114.412,164.429 L109.93,231.523 C109.758,232.919 107.827,233.109 107.43,231.764 L87.381,143.724 C86.467,140.811 87.657,137.656 90.243,136.053 L237.257,44.876 Z" id="Shape" fill="#9EC2E5"></path>
                    <path d="M108.154,232.678 C104.913,231.523 102.172,228.937 101,225.213 L75.59,144.551 L7.478,124.433 C-1.469,121.795 -1.986,109.349 6.685,105.953 L274.717,1.52 C281.302,-1.049 288.043,1.761 291.37,6.968 C290.749,6.02 290.008,5.141 289.181,4.365 L107.343,152.81 L107.343,159.309 L106.343,158.585 L107.343,199.511 L107.343,232.334 C107.602,232.455 107.877,232.558 108.153,232.644 L108.153,232.678 L108.154,232.678 Z" id="Shape" fill="#FFFFFF"></path>
                    <g id="Group" transform="translate(107.000000, 4.000000)" fill="#D1D1D1">
                        <path d="M186.525,9.518 C186.577,10.69 186.491,11.931 186.232,13.19 L140.462,231.971 C138.324,242.228 126.274,246.848 117.827,240.642 L48.733,189.925 L0.343,155.309 L0.343,148.81 L182.181,0.364 C183.008,1.14 183.75,2.019 184.37,2.967 C184.491,3.174 184.611,3.363 184.732,3.553 C184.835,3.76 184.956,3.967 185.06,4.156 C185.163,4.363 185.267,4.57 185.353,4.777 C185.456,5.001 185.543,5.208 185.629,5.432 C185.698,5.622 185.784,5.828 185.853,6.053 C186.077,6.725 186.249,7.415 186.37,8.139 C186.439,8.587 186.491,9.036 186.525,9.518 Z" id="Shape"></path>
                        <path d="M48.733,189.925 L13.514,225.886 C13.221,226.179 12.911,226.472 12.6,226.731 C12.29,226.99 11.979,227.214 11.652,227.438 L11.635,227.455 C10.98,227.886 10.308,228.248 9.601,228.541 C9.239,228.679 8.894,228.817 8.532,228.903 C7.032,229.351 5.498,229.472 3.981,229.317 C3.585,229.283 3.188,229.214 2.809,229.145 C2.757,229.145 2.706,229.128 2.654,229.111 C2.275,229.008 1.895,228.904 1.516,228.783 C1.395,228.749 1.275,228.714 1.154,228.645 L0.344,195.512 L0.344,155.31 L48.733,189.925 Z" id="Shape"></path>
                    </g>
                    <g id="Group" transform="translate(110.000000, 230.000000)" fill="#DADDE0">
                        <path d="M9.6,0.73 C9.29,0.989 8.979,1.23 8.652,1.454 L8.652,1.437 C8.98,1.213 9.29,0.989 9.6,0.73 Z" id="Shape"></path>
                        <path d="M8.652,1.437 L8.652,1.454 C8.652,1.454 8.652,1.437 8.635,1.454 C8.635,1.454 8.635,1.454 8.652,1.437 Z" id="Shape"></path>
                        <path d="M6.601,2.541 C7.308,2.248 7.98,1.886 8.635,1.455 C7.98,1.885 7.29,2.247 6.601,2.541 Z" id="Shape"></path>
                        <path d="M0.981,3.316 C2.498,3.471 4.032,3.35 5.532,2.902 C4.446,3.247 3.325,3.402 2.205,3.402 C1.86,3.402 1.515,3.385 1.188,3.35 C1.119,3.351 1.05,3.351 0.981,3.316 Z" id="Shape"></path>
                    </g>
                    <g id="Group" transform="translate(110.000000, 233.000000)" fill="#FFFFFF">
                        <path d="M2.205,0.402 C1.86,0.402 1.515,0.385 1.188,0.35 C1.515,0.385 1.86,0.402 2.205,0.402 Z" id="Shape"></path>
                        <path d="M0.981,0.316 C1.05,0.35 1.119,0.35 1.188,0.35 C0.826,0.333 0.498,0.281 0.154,0.212 C0.429,0.265 0.705,0.299 0.981,0.316 Z" id="Shape"></path>
                    </g>
                    <g id="Group" transform="translate(108.000000, 232.000000)" fill="#DADDE0">
                        <path d="M2.981,1.316 C2.705,1.299 2.429,1.264 2.154,1.213 C2.033,1.196 1.913,1.179 1.809,1.144 C2.188,1.213 2.584,1.282 2.981,1.316 Z" id="Shape"></path>
                        <path d="M0.516,0.782 C0.895,0.903 1.275,1.006 1.654,1.11 C1.499,1.076 1.344,1.041 1.189,1.007 C1.12,0.99 1.051,0.973 0.999,0.938 C0.843,0.903 0.671,0.851 0.516,0.782 Z" id="Shape"></path>
                    </g>
                    <g id="Group" transform="translate(108.000000, 232.000000)" fill="#FFFFFF">
                        <path d="M1.188,1.006 C1.343,1.04 1.498,1.075 1.653,1.109 C1.498,1.092 1.343,1.058 1.188,1.006 Z" id="Shape"></path>
                        <path d="M0.516,0.782 C0.671,0.851 0.844,0.903 0.999,0.937 C0.74,0.885 0.482,0.799 0.223,0.696 C0.326,0.73 0.412,0.765 0.516,0.782 Z" id="Shape"></path>
                    </g>
                    <path d="M108.516,232.782 C108.413,232.765 108.326,232.73 108.223,232.696 C108.206,232.713 108.171,232.696 108.154,232.679 L108.154,232.645 C108.274,232.713 108.395,232.747 108.516,232.782 Z" id="Shape" fill="#DADDE0"></path>
                    <path d="M107.343,199.511 L108.153,232.644 C107.877,232.558 107.601,232.454 107.343,232.334 L107.343,199.511 Z" id="Shape" fill="#D1D1D1"></path>
                    <polygon id="Shape" fill="#DADDE0" points="107.343 159.309 107.343 199.511 106.343 158.585"></polygon>
                    <path d="M241.118,50.065 L116.618,160.154 C115.377,161.257 114.584,162.774 114.411,164.429 L109.937,231.529 C109.765,232.925 107.834,233.115 107.42,231.77 L87.38,143.725 C86.466,140.812 87.656,137.657 90.242,136.054 L237.257,44.877 C240.636,42.773 244.101,47.428 241.118,50.065 Z" id="Shape" fill="#ADBCC9"></path>
                </g>
            </g>
        </g>
    </g>
</svg>
