<?xml version="1.0" standalone="no"?>
<!DOCTYPE svg PUBLIC "-//W3C//DTD SVG 20010904//EN"
 "http://www.w3.org/TR/2001/REC-SVG-20010904/DTD/svg10.dtd">
<svg version="1.0" xmlns="http://www.w3.org/2000/svg"
 width="228.000000pt" height="228.000000pt" viewBox="0 0 228.000000 228.000000"
 preserveAspectRatio="xMidYMid meet">
<metadata>
Created by potrace 1.11, written by Peter Selinger 2001-2013
</metadata>
<g transform="translate(0.000000,228.000000) scale(0.100000,-0.100000)"
fill="#000000" stroke="none">
<path d="M1430 2272 c0 -4 7 -26 15 -50 l15 -42 -35 -37 c-23 -24 -35 -47 -35
-65 0 -15 -3 -28 -7 -28 -5 0 -38 5 -75 10 -37 5 -91 12 -120 15 -29 3 -65 8
-79 10 -115 20 -73 33 -514 -154 l-110 -47 -55 -80 c-171 -244 -220 -321 -224
-354 -5 -33 -10 -61 -22 -120 -3 -14 -7 -38 -9 -55 -2 -16 -10 -60 -18 -96
-13 -63 -14 -126 -3 -214 3 -22 8 -71 11 -110 12 -140 14 -155 24 -172 5 -10
30 -74 57 -143 l47 -125 106 -105 c58 -58 137 -129 175 -158 133 -100 283
-155 416 -151 56 2 76 7 118 33 28 17 52 34 52 37 0 4 -37 28 -82 54 -77 44
-88 48 -151 48 l-69 0 4 36 c4 28 -6 57 -40 129 -25 50 -47 92 -51 92 -3 0
-21 -24 -40 -52 -28 -44 -34 -61 -32 -103 1 -27 4 -58 7 -67 3 -10 1 -18 -5
-18 -11 0 -81 57 -93 76 -4 7 -41 52 -82 101 -40 49 -81 103 -89 119 -20 39
-45 134 -41 159 2 11 6 52 9 90 18 236 13 220 125 349 20 23 56 66 80 96 79
97 94 110 130 115 19 2 52 7 73 10 20 4 47 8 60 10 46 6 233 36 255 41 23 5
23 4 7 -24 -17 -28 -37 -40 -107 -62 -21 -6 -38 -16 -38 -21 0 -9 60 -50 95
-63 11 -5 47 -10 80 -13 33 -2 65 -5 71 -7 21 -8 141 23 178 45 l37 22 182
-184 c170 -171 184 -189 211 -255 27 -68 32 -74 98 -117 l70 -45 44 30 c24 16
42 33 40 36 -4 7 -17 114 -20 162 0 14 12 54 28 90 28 62 29 73 33 238 l4 173
-51 139 -51 139 -155 153 c-153 151 -155 154 -144 183 12 32 7 66 -13 87 -6 7
-34 46 -61 85 -53 78 -37 69 -208 123 -16 5 -28 6 -28 2z"/>
</g>
</svg>
