<?xml version="1.0" encoding="iso-8859-1"?>
<!-- Generator: Adobe Illustrator 19.0.0, SVG Export Plug-In . SVG Version: 6.00 Build 0)  -->
<svg version="1.1" id="Layer_1" xmlns="http://www.w3.org/2000/svg" xmlns:xlink="http://www.w3.org/1999/xlink" x="0px" y="0px"
	 viewBox="0 0 512.001 512.001" style="enable-background:new 0 0 512.001 512.001;" xml:space="preserve">
<g>
	<path style="fill:#D7143A;" d="M499.81,222.505h-32.168v-32.17c0-6.734-5.456-12.19-12.19-12.19h-43.426
		c-6.734,0-12.19,5.456-12.19,12.19v32.17h-32.168c-6.734,0-12.19,5.456-12.19,12.19v43.426c0,6.734,5.456,12.19,12.19,12.19h32.168
		v32.17c0,6.732,5.456,12.19,12.19,12.19h43.426c6.734,0,12.19-5.458,12.19-12.19v-32.17h32.168c6.734,0,12.19-5.456,12.19-12.19
		v-43.426C512.001,227.961,506.544,222.505,499.81,222.505z"/>
	<path style="fill:#D7143A;" d="M165.638,169.303c14.772,0,28.969,3.982,41.08,11.519l13.837,9.468
		c4.823,3.3,11.31,2.716,15.464-1.399l40.355-39.978c2.583-2.558,3.888-6.134,3.561-9.754c-0.325-3.62-2.25-6.905-5.247-8.961
		l-23.454-16.085c-0.478-0.327-0.98-0.621-1.499-0.876l-22.721-11.218c-0.301-0.15-0.608-0.286-0.92-0.41
		c-19.573-7.727-40.194-11.646-61.29-11.646c-43.491,0-84.514,16.693-115.514,46.998C17.812,167.736,0.306,209.585,0.004,254.8
		c-0.304,45.225,16.642,87.316,47.714,118.517c30.831,30.962,74.572,48.721,120.01,48.721c44.955,0,87.134-17.455,115.72-47.889
		c22.643-24.106,36.539-56.305,40.191-93.116c0.034-0.349,0.055-0.699,0.059-1.048l0.423-33.069c0.01-0.684-0.039-1.367-0.146-2.043
		l-1.772-11.301c-0.928-5.931-6.04-10.303-12.043-10.303H169.283c-6.734,0-12.19,5.458-12.19,12.19v48.733
		c0,6.732,5.456,12.19,12.19,12.19h71.82c-3.291,7.215-8.478,14.824-15.037,21.914c-14.305,15.471-35.638,24.344-58.531,24.344
		c-23.378,0-45.766-9.161-61.424-25.132c-32.592-33.236-32.219-91.147,0.795-123.928
		C122.448,178.153,143.857,169.303,165.638,169.303z"/>
</g>
<g>
</g>
<g>
</g>
<g>
</g>
<g>
</g>
<g>
</g>
<g>
</g>
<g>
</g>
<g>
</g>
<g>
</g>
<g>
</g>
<g>
</g>
<g>
</g>
<g>
</g>
<g>
</g>
<g>
</g>
</svg>
