<?xml version="1.0" encoding="iso-8859-1"?>
<!-- Generator: Adobe Illustrator 19.0.0, SVG Export Plug-In . SVG Version: 6.00 Build 0)  -->
<svg version="1.1" id="Layer_1" xmlns="http://www.w3.org/2000/svg" xmlns:xlink="http://www.w3.org/1999/xlink" x="0px" y="0px"
	 viewBox="0 0 512 512" style="enable-background:new 0 0 512 512;" xml:space="preserve">
<path style="fill:#1D3366;" d="M65.741,0.021H446.29c36.154,0,65.71,29.566,65.71,65.72V446.29c0,36.144-29.556,65.69-65.71,65.69
	H65.741C29.587,511.98,0,482.432,0,446.29V65.741C0,29.587,29.587,0.021,65.741,0.021z M372.985,56.882
	c-12.694,0-23.049,10.395-23.049,23.083v55.149c0,12.692,10.354,23.064,23.049,23.064h57.861c12.674,0,23.05-10.371,23.05-23.064
	V79.964c0-12.687-10.377-23.083-23.05-23.083C430.846,56.882,372.985,56.882,372.985,56.882z M454.117,216.521h-45.049
	c4.272,13.952,6.588,28.665,6.588,43.962c0,85.132-71.281,154.18-159.174,154.18c-87.871,0-159.154-69.048-159.154-154.18
	c0-15.297,2.338-30.01,6.589-43.962h-47v216.289c0,11.201,9.146,20.313,20.337,20.313h356.535c11.201,0,20.328-9.112,20.328-20.313
	V216.521z M256.483,155.269c-56.764,0-102.81,44.592-102.81,99.649c0,55.001,46.046,99.627,102.81,99.627
	c56.794,0,102.842-44.626,102.842-99.627C359.325,199.859,313.277,155.269,256.483,155.269z"/>
<g>
</g>
<g>
</g>
<g>
</g>
<g>
</g>
<g>
</g>
<g>
</g>
<g>
</g>
<g>
</g>
<g>
</g>
<g>
</g>
<g>
</g>
<g>
</g>
<g>
</g>
<g>
</g>
<g>
</g>
</svg>
